<svg version="1.2" xmlns="http://www.w3.org/2000/svg" viewBox="0 0 1812 915" width="1812" height="915">
	<title>New Project</title>
	<style>
		.s0 { fill: none;stroke: #27469d;stroke-width: 28 } 
		.s1 { fill: #000000 } 
	</style>
	<path id="Layer 1" class="s0" d="m836 819c-440.2 0-796-174.1-796-389.5 0-215.4 355.8-389.5 796-389.5 440.2 0 796 174.1 796 389.5 0 215.4-355.8 389.5-796 389.5z"/>
	<path id="PALL" class="s1" aria-label="PALL"  d="m526.9 299.1h-45.2v99.8h45.2q25 0 38.7-13 13.7-13 13.7-37 0-23.8-13.7-36.8-13.7-13-38.7-13zm-81.1 235.9v-265.4h81.1q44.6 0 67.3 20.3 23 20.1 23 59 0 39.3-23 59.4-22.7 20.1-67.3 20.1h-45.2v106.6zm333.8-97.9l-48.9-132.1-48.7 132.1zm-170.4 97.9l101.3-265.4h40.7l101.1 265.4h-37.3l-24.2-68.1h-119.6l-24.2 68.1zm281.9 0v-265.4h35.9v235.2h129.2v30.2zm202.8 0v-265.4h35.9v235.2h129.3v30.2z"/>
</svg>