<svg version="1.2" xmlns="http://www.w3.org/2000/svg" width="1812" height="915"><path id="Layer 1" d="M836 819C395.8 819 40 644.9 40 429.5S395.8 40 836 40s796 174.1 796 389.5S1276.2 819 836 819z" style="fill:none;stroke:#27469d;stroke-width:28px"/><path id="PALL" aria-label="PALL" d="M526.9 299.1h-45.2v99.8h45.2q25 0 38.7-13 13.7-13 13.7-37 0-23.8-13.7-36.8-13.7-13-38.7-13zM445.8 535V269.6h81.1q44.6 0 67.3 20.3 23 20.1 23 59 0 39.3-23 59.4-22.7 20.1-67.3 20.1h-45.2V535zm333.8-97.9L730.7 305 682 437.1zM609.2 535l101.3-265.4h40.7L852.3 535H815l-24.2-68.1H671.2L647 535zm281.9 0V269.6H927v235.2h129.2V535zm202.8 0V269.6h35.9v235.2h129.3V535z" style="fill:#000"/></svg>